<svg width="54" height="54" viewBox="0 0 54 54" fill="none" xmlns="http://www.w3.org/2000/svg">
<path d="M0 10C0 4.47715 4.47715 0 10 0H44C49.5228 0 54 4.47715 54 10V44C54 49.5228 49.5228 54 44 54H10C4.47715 54 0 49.5228 0 44V10Z" fill="url(#paint0_linear_1364_2)"/>
<path d="M44 0H10C4.47715 0 0 4.47715 0 10V44C0 49.5228 4.47715 54 10 54H24.3707C19.8323 49.9889 17 44.3041 17 38C17 25.8497 27.5213 16 40.5 16C45.5242 16 50.1801 17.476 54 19.9901V10C54 4.47715 49.5228 0 44 0Z" fill="url(#paint1_linear_1364_2)"/>
<path d="M9.81818 54H44.1818C49.6043 54 54 49.4945 54 43.9368V43.8929C51.1634 44.5797 48.2049 44.9431 45.1636 44.9431C24.0162 44.9431 6.87273 27.3718 6.87273 5.69655C6.87273 3.76181 6.87273 2.5 7 0.5C2.81134 1.64905 0 5.06624 0 9.72184V43.9368C0 49.4945 4.39575 54 9.81818 54Z" fill="url(#paint2_linear_1364_2)"/>
<path fill-rule="evenodd" clip-rule="evenodd" d="M25.2353 18.1186C25.2353 14.1871 28.3956 11 32.2941 11C36.1926 11 39.3529 14.1871 39.3529 18.1186C39.3529 20.2269 38.4441 22.1212 37 23.4247V27.0239L43.5882 23.339H45V39H43.5882L37 35.2034V39H14.8824L13.4706 35.2034V27.0239L14.832 23.4704C13.7013 22.351 13 20.792 13 19.0678C13 15.6605 15.739 12.8983 19.1176 12.8983C22.4963 12.8983 25.2353 15.6605 25.2353 19.0678C25.2353 20.7255 24.587 22.2305 23.5322 23.339H27.495C26.1051 22.0389 25.2353 20.1812 25.2353 18.1186ZM32.2941 23.339C35.153 23.339 37.4706 21.0018 37.4706 18.1186C37.4706 15.2355 35.153 12.8983 32.2941 12.8983C29.4352 12.8983 27.1176 15.2355 27.1176 18.1186C27.1176 21.0018 29.4352 23.339 32.2941 23.339ZM19.1176 23.339C21.4567 23.339 23.3529 21.4267 23.3529 19.0678C23.3529 16.7089 21.4567 14.7966 19.1176 14.7966C16.7786 14.7966 14.8824 16.7089 14.8824 19.0678C14.8824 21.4267 16.7786 23.339 19.1176 23.339Z" fill="#F3F7FC"/>
<defs>
<linearGradient id="paint0_linear_1364_2" x1="18.5" y1="33.5" x2="54" y2="33.5" gradientUnits="userSpaceOnUse">
<stop stop-color="#1D1D1D"/>
<stop offset="1" stop-color="#707070"/>
</linearGradient>
<linearGradient id="paint1_linear_1364_2" x1="-1.35601e-06" y1="54" x2="53" y2="2" gradientUnits="userSpaceOnUse">
<stop stop-color="#707070"/>
<stop offset="1" stop-color="#1D1D1D"/>
</linearGradient>
<linearGradient id="paint2_linear_1364_2" x1="-8.72218e-07" y1="-0.504673" x2="55.5021" y2="53.4838" gradientUnits="userSpaceOnUse">
<stop stop-color="#1D1D1D"/>
<stop offset="1" stop-color="#707070"/>
</linearGradient>
</defs>
</svg>
