<svg width="54" height="54" viewBox="0 0 54 54" fill="none" xmlns="http://www.w3.org/2000/svg">
<path d="M0 10C0 4.47715 4.47715 0 10 0H44C49.5228 0 54 4.47715 54 10V44C54 49.5228 49.5228 54 44 54H10C4.47715 54 0 49.5228 0 44V10Z" fill="url(#paint0_linear_1364_9)"/>
<path d="M44 0H10C4.47715 0 0 4.47715 0 10V44C0 49.5228 4.47715 54 10 54H24.3707C19.8323 49.9889 17 44.3041 17 38C17 25.8497 27.5213 16 40.5 16C45.5242 16 50.1801 17.476 54 19.9901V10C54 4.47715 49.5228 0 44 0Z" fill="url(#paint1_linear_1364_9)"/>
<path d="M9.81818 54H44.1818C49.6043 54 54 49.4945 54 43.9368V43.8929C51.1634 44.5797 48.2049 44.9431 45.1636 44.9431C24.0162 44.9431 6.87273 27.3718 6.87273 5.69655C6.87273 3.76181 6.87273 2.5 7 0.5C2.81134 1.64905 0 5.06624 0 9.72184V43.9368C0 49.4945 4.39575 54 9.81818 54Z" fill="url(#paint2_linear_1364_9)"/>
<path fill-rule="evenodd" clip-rule="evenodd" d="M42.7452 12.2034L40.4994 11L39.4672 12.0354L38.2141 11.8424L38.4065 13.0994L37.1533 12.9064L37.3457 14.1635L36.0925 13.9705L36.2849 15.2275L35.2241 16.2916L36.0025 17.0191L28.2517 24.6802C26.1256 23.5227 23.2361 23.3567 21.742 24.8555C21.078 25.5215 20.6887 26.3756 20.5624 27.3062C20.5538 27.6988 20.3366 28.4484 19.5365 28.3056C17.3081 27.7618 15.0915 28.1945 13.6027 29.6879C11.0559 32.2426 11.6034 36.9337 14.8255 40.1658C18.0477 43.3979 22.7244 43.947 25.2712 41.3924C26.6727 39.9866 27.1372 37.9338 26.7346 35.8333C26.6418 35.1505 27.2311 34.7734 27.5373 34.6701C28.5934 34.5981 29.5704 34.1979 30.313 33.453C31.8439 31.9174 31.6116 29.2193 30.366 27.051L38.0028 19.0255L38.7444 19.8227L39.8145 18.768L41.0015 18.8946L40.8462 17.6748L42.0623 17.8306L41.907 16.6108L43.123 16.7665L42.9968 15.5758L44 14.5114L42.7452 12.2034ZM26.0372 31.3185C26.0372 32.7036 24.9177 33.8265 23.5369 33.8265C22.156 33.8265 21.0366 32.7036 21.0366 31.3185C21.0366 29.9334 22.156 28.8105 23.5369 28.8105C24.9177 28.8105 26.0372 29.9334 26.0372 31.3185ZM21.2793 37.3733L17.7434 33.8265L17.0362 34.5359L20.5721 38.0827L21.2793 37.3733Z" fill="#F3F7FC"/>
<defs>
<linearGradient id="paint0_linear_1364_9" x1="18.5" y1="33.5" x2="54" y2="33.5" gradientUnits="userSpaceOnUse">
<stop stop-color="#F4683A"/>
<stop offset="1" stop-color="#FA993F"/>
</linearGradient>
<linearGradient id="paint1_linear_1364_9" x1="-1.35601e-06" y1="54" x2="53" y2="2" gradientUnits="userSpaceOnUse">
<stop stop-color="#FA993F"/>
<stop offset="1" stop-color="#F4683A"/>
</linearGradient>
<linearGradient id="paint2_linear_1364_9" x1="-8.72218e-07" y1="-0.504673" x2="55.5021" y2="53.4838" gradientUnits="userSpaceOnUse">
<stop stop-color="#F4683A"/>
<stop offset="1" stop-color="#FA993F"/>
</linearGradient>
</defs>
</svg>
