<svg width="54" height="54" viewBox="0 0 54 54" fill="none" xmlns="http://www.w3.org/2000/svg">
<path d="M0 10C0 4.47715 4.47715 0 10 0H44C49.5228 0 54 4.47715 54 10V44C54 49.5228 49.5228 54 44 54H10C4.47715 54 0 49.5228 0 44V10Z" fill="url(#paint0_linear_1364_8)"/>
<path d="M44 0H10C4.47715 0 0 4.47715 0 10V44C0 49.5228 4.47715 54 10 54H24.3707C19.8323 49.9889 17 44.3041 17 38C17 25.8497 27.5213 16 40.5 16C45.5242 16 50.1801 17.476 54 19.9901V10C54 4.47715 49.5228 0 44 0Z" fill="url(#paint1_linear_1364_8)"/>
<path d="M9.81818 54H44.1818C49.6043 54 54 49.4945 54 43.9368V43.8929C51.1634 44.5797 48.2049 44.9431 45.1636 44.9431C24.0162 44.9431 6.87273 27.3718 6.87273 5.69655C6.87273 3.76181 6.87273 2.5 7 0.5C2.81134 1.64905 0 5.06624 0 9.72184V43.9368C0 49.4945 4.39575 54 9.81818 54Z" fill="url(#paint2_linear_1364_8)"/>
<path d="M24.0169 16.7931C24.0169 17.8596 23.167 18.7241 22.1186 18.7241C21.0702 18.7241 20.2203 17.8596 20.2203 16.7931C20.2203 15.7266 21.0702 14.8621 22.1186 14.8621C23.167 14.8621 24.0169 15.7266 24.0169 16.7931Z" fill="#F3F7FC"/>
<path d="M26.1864 18.7241C26.1864 18.4483 26.6746 17.6207 27.5424 17.6207C28.4102 17.6207 28.8983 18.4483 28.8983 18.7241C29.7119 18.7241 31.0678 18.9448 31.0678 20.931H25.1017C25.1017 18.9448 25.9153 18.7241 26.1864 18.7241Z" fill="#F3F7FC"/>
<path fill-rule="evenodd" clip-rule="evenodd" d="M43 11H11V33.069H23.4746L18.0508 43H21.8475L24.5593 38.5862H30.5254L33.2373 43H37.0339L31.6102 33.069H43V11ZM13.1695 13.2069H40.8305V27H39.4746L35.9492 23.1379L32.1525 27H26.7288L20.4915 20.931L14.7966 27H13.1695V13.2069ZM34.322 14.8621C33.4542 14.8621 33.2373 15.5977 33.2373 15.9655C32.8757 15.9655 32.1525 16.1862 32.1525 17.069H35.9492C35.9492 16.1862 35.5876 15.9655 35.4068 15.9655C35.4068 15.5977 35.1898 14.8621 34.322 14.8621ZM22.1186 18.7241C23.167 18.7241 24.0169 17.8596 24.0169 16.7931C24.0169 15.7266 23.167 14.8621 22.1186 14.8621C21.0702 14.8621 20.2203 15.7266 20.2203 16.7931C20.2203 17.8596 21.0702 18.7241 22.1186 18.7241ZM28.3559 33.069H26.7288L25.1017 36.3793H29.9831L28.3559 33.069Z" fill="#F3F7FC"/>
<defs>
<linearGradient id="paint0_linear_1364_8" x1="18.5" y1="33.5" x2="54" y2="33.5" gradientUnits="userSpaceOnUse">
<stop stop-color="#ECA517"/>
<stop offset="1" stop-color="#F9D180"/>
</linearGradient>
<linearGradient id="paint1_linear_1364_8" x1="-1.35601e-06" y1="54" x2="53" y2="2" gradientUnits="userSpaceOnUse">
<stop stop-color="#F9D180"/>
<stop offset="1" stop-color="#ECA517"/>
</linearGradient>
<linearGradient id="paint2_linear_1364_8" x1="-8.72218e-07" y1="-0.504673" x2="55.5021" y2="53.4838" gradientUnits="userSpaceOnUse">
<stop stop-color="#ECA517"/>
<stop offset="1" stop-color="#F9D180"/>
</linearGradient>
</defs>
</svg>
