<svg width="54" height="54" viewBox="0 0 54 54" fill="none" xmlns="http://www.w3.org/2000/svg">
<path d="M0 10C0 4.47715 4.47715 0 10 0H44C49.5228 0 54 4.47715 54 10V44C54 49.5228 49.5228 54 44 54H10C4.47715 54 0 49.5228 0 44V10Z" fill="url(#paint0_linear_1364_4)"/>
<path d="M44 0H10C4.47715 0 0 4.47715 0 10V44C0 49.5228 4.47715 54 10 54H24.3707C19.8323 49.9889 17 44.3041 17 38C17 25.8497 27.5213 16 40.5 16C45.5242 16 50.1801 17.476 54 19.9901V10C54 4.47715 49.5228 0 44 0Z" fill="url(#paint1_linear_1364_4)"/>
<path d="M9.81818 54H44.1818C49.6043 54 54 49.4945 54 43.9368V43.8929C51.1634 44.5797 48.2049 44.9431 45.1636 44.9431C24.0162 44.9431 6.87273 27.3718 6.87273 5.69655C6.87273 3.76181 6.87273 2.5 7 0.5C2.81134 1.64905 0 5.06624 0 9.72184V43.9368C0 49.4945 4.39575 54 9.81818 54Z" fill="url(#paint2_linear_1364_4)"/>
<path fill-rule="evenodd" clip-rule="evenodd" d="M11 13H43V35.8148H29.7077V38.4074L34.1385 39.4444V41H19.8615V39.4444L24.2923 38.4074L24.2232 35.8148H11V13ZM30.2 20.5185C30.2 22.3799 28.7673 23.8889 27 23.8889C25.2327 23.8889 23.8 22.3799 23.8 20.5185C23.8 18.6571 25.2327 17.1481 27 17.1481C28.7673 17.1481 30.2 18.6571 30.2 20.5185ZM29.3449 24.4074L27 29.0741L24.6551 24.4074H29.3449ZM33.1538 26.4815V30.6296H27.2462L30.2 24.4074H31.1846C32.2722 24.4074 33.1538 25.336 33.1538 26.4815ZM20.8462 30.6296H26.7538L23.8 24.4074H22.8154C21.7278 24.4074 20.8462 25.336 20.8462 26.4815V30.6296Z" fill="#F3F7FC"/>
<defs>
<linearGradient id="paint0_linear_1364_4" x1="18.5" y1="33.5" x2="54" y2="33.5" gradientUnits="userSpaceOnUse">
<stop stop-color="#119371"/>
<stop offset="1" stop-color="#24A978"/>
</linearGradient>
<linearGradient id="paint1_linear_1364_4" x1="-8.3612e-08" y1="33.5" x2="53" y2="2" gradientUnits="userSpaceOnUse">
<stop stop-color="#24A978"/>
<stop offset="1" stop-color="#119371"/>
</linearGradient>
<linearGradient id="paint2_linear_1364_4" x1="-8.72218e-07" y1="-0.504673" x2="55.5021" y2="53.4838" gradientUnits="userSpaceOnUse">
<stop stop-color="#119371"/>
<stop offset="1" stop-color="#24A978"/>
</linearGradient>
</defs>
</svg>
