<svg width="54" height="54" viewBox="0 0 54 54" fill="none" xmlns="http://www.w3.org/2000/svg">
<path d="M0 10C0 4.47715 4.47715 0 10 0H44C49.5228 0 54 4.47715 54 10V44C54 49.5228 49.5228 54 44 54H10C4.47715 54 0 49.5228 0 44V10Z" fill="url(#paint0_linear_1364_3)"/>
<path d="M44 0H10C4.47715 0 0 4.47715 0 10V44C0 49.5228 4.47715 54 10 54H24.3707C19.8323 49.9889 17 44.3041 17 38C17 25.8497 27.5213 16 40.5 16C45.5242 16 50.1801 17.476 54 19.9901V10C54 4.47715 49.5228 0 44 0Z" fill="url(#paint1_linear_1364_3)"/>
<path d="M9.81818 54H44.1818C49.6043 54 54 49.4945 54 43.9368V43.8929C51.1634 44.5797 48.2049 44.9431 45.1636 44.9431C24.0162 44.9431 6.87273 27.3718 6.87273 5.69655C6.87273 3.76181 6.87273 2.5 7 0.5C2.81134 1.64905 0 5.06624 0 9.72184V43.9368C0 49.4945 4.39575 54 9.81818 54Z" fill="url(#paint2_linear_1364_3)"/>
<path fill-rule="evenodd" clip-rule="evenodd" d="M11 17.15C16.5008 10.9029 24.3995 10.5977 27.6612 11.226C28.3664 13.0212 29.6182 17.3655 28.9835 20.3814C27.7493 20.5609 25.1752 21.5661 24.7521 24.1511C23.4297 24.0614 20.6264 24.6897 19.9917 27.9209C21.4784 26.6284 23.0795 26.6643 23.6942 26.8439C22.8479 27.7055 22.1074 30.6136 21.843 31.96C14.6496 28.5133 11.6171 20.6506 11 17.15ZM16.2893 24.1511C16.2893 22.8945 17.0297 20.3814 19.9917 20.3814C20.168 21.1892 19.6744 23.0741 16.2893 24.1511ZM22.9008 19.035C23.6942 18.3169 25.6512 17.3117 27.1322 19.035C24.805 20.543 23.3416 19.6633 22.9008 19.035Z" fill="#F3F7FC"/>
<path fill-rule="evenodd" clip-rule="evenodd" d="M27.6612 22.5351C30.5703 22.3556 37.7107 23.666 43 30.344C41.5895 34.5626 36.3356 43 26.6033 43C21.5256 36.1067 25.1928 26.4845 27.6612 22.5351ZM26.6033 34.1142C26.6915 35.7298 28.1901 38.7995 33.4793 38.1532C26.7091 42.4332 26.0744 37.2438 26.6033 34.1142ZM27.1322 29.2673C28.1901 29.0878 30.4116 29.2673 30.8347 31.4215C28.719 31.8523 27.4848 30.1649 27.1322 29.2673ZM33.4793 32.4985C34.449 32.4088 36.4942 32.7678 36.9173 34.922C33.902 34.922 33.3689 33.3064 33.4793 32.4985Z" fill="#F3F7FC"/>
<defs>
<linearGradient id="paint0_linear_1364_3" x1="18.5" y1="33.5" x2="54" y2="33.5" gradientUnits="userSpaceOnUse">
<stop stop-color="#C10C2F"/>
<stop offset="1" stop-color="#F3748C"/>
</linearGradient>
<linearGradient id="paint1_linear_1364_3" x1="-1.35601e-06" y1="54" x2="53" y2="2" gradientUnits="userSpaceOnUse">
<stop stop-color="#F3748C"/>
<stop offset="1" stop-color="#EE2E53"/>
</linearGradient>
<linearGradient id="paint2_linear_1364_3" x1="-8.72218e-07" y1="-0.504673" x2="55.5021" y2="53.4838" gradientUnits="userSpaceOnUse">
<stop stop-color="#C10C2F"/>
<stop offset="1" stop-color="#F3748C"/>
</linearGradient>
</defs>
</svg>
