<svg width="54" height="54" viewBox="0 0 54 54" fill="none" xmlns="http://www.w3.org/2000/svg">
<path d="M0 10C0 4.47715 4.47715 0 10 0H44C49.5228 0 54 4.47715 54 10V44C54 49.5228 49.5228 54 44 54H10C4.47715 54 0 49.5228 0 44V10Z" fill="url(#paint0_linear_1364_13)"/>
<path d="M44 0H10C4.47715 0 0 4.47715 0 10V44C0 49.5228 4.47715 54 10 54H24.3707C19.8323 49.9889 17 44.3041 17 38C17 25.8497 27.5213 16 40.5 16C45.5242 16 50.1801 17.476 54 19.9901V10C54 4.47715 49.5228 0 44 0Z" fill="url(#paint1_linear_1364_13)"/>
<path d="M9.81818 54H44.1818C49.6043 54 54 49.4945 54 43.9368V43.8929C51.1634 44.5797 48.2049 44.9431 45.1636 44.9431C24.0162 44.9431 6.87273 27.3718 6.87273 5.69655C6.87273 3.76181 6.87273 2.5 7 0.5C2.81134 1.64905 0 5.06624 0 9.72184V43.9368C0 49.4945 4.39575 54 9.81818 54Z" fill="url(#paint2_linear_1364_13)"/>
<path d="M13.5567 12.652C13.2978 12.3653 12.6601 11.9429 12.1808 12.5471C12.0846 12.7779 12.0343 13.3359 12.6024 13.7219C12.9501 13.6799 13.6277 13.4072 13.5567 12.652Z" fill="white"/>
<path fill-rule="evenodd" clip-rule="evenodd" d="M42.761 24.3785C40.9147 10.936 30.0377 10.6941 24.8301 12.2534C24.9188 12.4003 25.0431 13.0212 24.8301 14.3302C25.4958 15.3791 27.5508 17.1748 27.3377 19.5746C26.9087 18.1901 25.6645 15.4294 24.1199 15.463C23.9794 15.477 23.6717 15.5889 23.5651 15.9245C23.7427 16.442 23.5829 17.8209 21.5235 19.197C22.3224 18.6097 23.6717 17.0405 22.6775 15.463C21.6833 13.8855 21.4643 13.2394 21.4791 13.1135C21.6862 13.547 22.247 14.4812 22.8328 14.7498C23.4187 15.0183 23.9942 14.2743 24.2087 13.8687C24.7191 13.0086 24.1199 11.4353 22.0561 12.4632C21.3904 12.2115 19.8991 11.6996 19.2599 11.666C18.6208 11.6325 18.4315 11.68 18.4167 11.708C18.0468 11.722 17.1917 11.708 16.7301 11.5402C16.1531 11.3304 14.7106 12.0646 14.1115 12.2115C14.0671 12.2604 13.9295 12.3163 13.7342 12.1485C13.4901 11.9388 12.4471 11.4982 11.9811 11.9178C11.6082 12.2534 11.6482 12.8268 11.7148 13.0715C11.8035 13.3093 12.0831 13.8268 12.4915 13.9946C13.0019 14.2043 14.0449 13.5331 14.4221 12.8408C14.3556 13.1205 14.0183 13.8729 13.2016 14.6449C12.3849 15.4169 12.2843 16.5329 12.3361 16.9944C12.4441 18.015 13.5859 20.8948 17.2623 24.42C17.3734 24.5245 17.4777 24.6231 17.5734 24.7142C17.4677 24.6156 17.364 24.5176 17.2623 24.42C16.017 23.2492 13.9198 21.3509 13.5123 21.2738C13.0684 21.1899 13.0019 22.5954 13.0241 23.3087C12.8095 24.4205 12.9042 28.8636 14.9991 37.7413C14.4 38.056 14.178 38.6224 14.178 39H20.0589C19.1357 37.6742 17.7657 37.4966 17.1961 37.5735C17.4447 37.305 18.2909 37.3497 18.683 37.4057C18.683 35.7443 19.1712 33.7626 19.4153 32.9794C19.6816 32.413 20.2541 31.083 20.4139 30.2943C20.5737 29.5055 19.3265 27.9517 18.683 27.2735C22.8905 30.1768 23.4098 35.4618 23.1435 37.7413C23.0123 37.7413 22.9023 37.7661 22.8106 37.8093C22.3668 38.1818 22.2558 38.5594 22.2558 39H28.6693C27.8703 37.7078 27.0345 37.6225 26.7164 37.7413C27.2135 37.4225 27.6336 37.6085 27.7816 37.7413C30.6931 30.5754 31.0512 25.847 30.8662 24.3785C31.2391 25.4022 31.0216 27.9238 30.8662 29.0566C30.1028 31.7249 30.8736 32.0844 31.3545 31.9305C35.3135 30.2523 35.2084 35.9443 34.661 39H40.3421C39.774 37.6071 37.3388 37.5805 36.1923 37.7413C38.1096 37.4225 39.2399 37.6085 39.5654 37.7413C41.9076 33.2607 42.764 29.733 42.9557 27.3594C42.993 26.0792 42.8965 25.0479 42.761 24.3785ZM23.0325 14.54C22.5177 14.2547 22.3002 13.5121 22.2558 13.1764C23.2145 12.5387 23.6317 12.8128 23.7205 13.0296C24.0933 13.8519 23.4172 14.3792 23.0325 14.54ZM12.1808 12.5471C12.6601 11.9429 13.2978 12.3653 13.5567 12.652C13.6277 13.4072 12.9501 13.6799 12.6024 13.7219C12.0343 13.3359 12.0846 12.7779 12.1808 12.5471ZM16.2641 15.9245C15.6249 16.5958 16.3972 17.351 16.8632 17.6447C16.9372 17.7636 16.992 18.0223 16.6191 18.1062C15.9386 17.8755 14.7328 16.9483 15.3542 15.0854C15.0953 15.477 14.7328 16.4909 15.3542 17.4139C15.9756 18.3369 16.7079 18.5677 16.952 18.5677C17.063 18.4838 17.2849 18.4628 17.3736 18.5677C17.7731 18.5747 18.6963 18.3286 19.1934 17.2881C19.6905 16.2476 19.2969 15.3441 19.038 15.0225C19.6949 16.8685 18.3723 17.9803 17.7731 18.1062C17.489 17.9552 17.5512 17.7356 17.6178 17.6447C18.0912 17.2671 18.8206 16.3692 17.9506 15.7986C17.8619 15.7497 17.6222 15.7063 17.3736 15.9245C17.3145 15.9805 17.1695 16.0588 17.063 15.9245C16.6191 15.6896 16.3454 15.8266 16.2641 15.9245ZM19.4153 13.9946C19.2555 14.0953 19.0232 14.0645 18.9271 14.0365C19.1401 14.6239 19.7112 14.519 19.9701 14.3931C20.0736 14.3022 20.2497 14.0701 20.1254 13.8687C19.9701 13.617 19.615 13.8687 19.4153 13.9946ZM15.221 13.8687C15.4341 14.0869 15.6945 14.0715 15.798 14.0365C15.798 14.2043 15.4208 14.561 14.9326 14.4561C14.4443 14.3512 14.4887 13.9946 14.5553 13.8687C14.6219 13.7428 14.9547 13.596 15.221 13.8687Z" fill="white"/>
<defs>
<linearGradient id="paint0_linear_1364_13" x1="18.5" y1="33.5" x2="54" y2="33.5" gradientUnits="userSpaceOnUse">
<stop stop-color="#3FACD3"/>
<stop offset="1" stop-color="#89DCFA"/>
</linearGradient>
<linearGradient id="paint1_linear_1364_13" x1="-1.35601e-06" y1="54" x2="53" y2="2" gradientUnits="userSpaceOnUse">
<stop stop-color="#89DCFA"/>
<stop offset="1" stop-color="#3FACD3"/>
</linearGradient>
<linearGradient id="paint2_linear_1364_13" x1="-8.72218e-07" y1="-0.504673" x2="55.5021" y2="53.4838" gradientUnits="userSpaceOnUse">
<stop stop-color="#3FACD3"/>
<stop offset="1" stop-color="#89DCFA"/>
</linearGradient>
</defs>
</svg>
